<svg width="128" height="82" viewBox="0 0 128 82" fill="none" xmlns="http://www.w3.org/2000/svg">
<path d="M95.7812 3.18066C97.3554 1.60657 99.9073 1.60659 101.481 3.18066C103.056 4.7548 103.056 7.30671 101.481 8.88086L79.3223 31.04C73.7739 36.5884 73.774 45.5844 79.3223 51.1328L100.905 72.7158C102.508 74.3181 102.508 76.9163 100.905 78.5186C99.3031 80.1203 96.7057 80.1204 95.1035 78.5186L73.5205 56.9346C67.9722 51.3864 58.9761 51.3864 53.4277 56.9346L32.3223 78.041C30.7481 79.6152 28.1952 79.6152 26.6211 78.041C25.047 76.4669 25.047 73.914 26.6211 72.3398L47.7275 51.2344C53.2757 45.686 53.2759 36.6899 47.7275 31.1416L26.041 9.45605C24.4388 7.85382 24.4388 5.25556 26.041 3.65332C27.6433 2.0512 30.2415 2.05112 31.8438 3.65332L53.5293 25.3398C59.0777 30.8882 68.0737 30.8882 73.6221 25.3398L95.7812 3.18066ZM61.0986 69.4502C62.7013 67.8476 65.2988 67.8476 66.9014 69.4502C68.504 71.0528 68.504 73.6513 66.9014 75.2539C65.2989 76.856 62.7012 76.856 61.0986 75.2539C59.496 73.6513 59.496 71.0528 61.0986 69.4502ZM4.98926 33.3418C8.97557 29.3555 15.4395 29.3555 19.4258 33.3418C23.4117 37.3281 23.4119 43.7911 19.4258 47.7773C15.4395 51.7637 8.97557 51.7637 4.98926 47.7773C1.00321 43.7912 1.00342 37.3281 4.98926 33.3418ZM108.574 33.3418C112.561 29.3555 119.024 29.3555 123.011 33.3418C126.997 37.3281 126.997 43.7912 123.011 47.7773C119.024 51.7637 112.561 51.7637 108.574 47.7773C104.588 43.7911 104.588 37.3281 108.574 33.3418Z" stroke="#5CD6AD" stroke-width="4"/>
</svg>
